<?xml version="1.0" encoding="utf-8"?>
<!-- Generator: Adobe Illustrator 16.0.0, SVG Export Plug-In . SVG Version: 6.00 Build 0)  -->
<!DOCTYPE svg PUBLIC "-//W3C//DTD SVG 1.1//EN" "http://www.w3.org/Graphics/SVG/1.1/DTD/svg11.dtd">
<svg version="1.1" xmlns="http://www.w3.org/2000/svg" xmlns:xlink="http://www.w3.org/1999/xlink" x="0px" y="0px"
	 width="240.945px" height="155.905px" viewBox="0 0 240.945 155.905" enable-background="new 0 0 240.945 155.905"
	 xml:space="preserve">
<g id="Magali_Caignec">
	<g>
		<defs>
			<rect id="SVGID_1_" x="21.727" y="14.623" width="194.088" height="128.575"/>
		</defs>
		<clipPath id="SVGID_2_">
			<use xlink:href="#SVGID_1_"  overflow="visible"/>
		</clipPath>
		<rect x="22.515" y="-237.137" clip-path="url(#SVGID_2_)" fill="#3E3E3E" width="192.984" height="389.316"/>
		<g clip-path="url(#SVGID_2_)">
			<path fill-rule="evenodd" clip-rule="evenodd" fill="#252424" d="M58.03-308.831c-0.071,1.192-0.225,2.386-0.225,3.577
				c-0.008,166.174-0.008,332.351,0,498.523c0,1.412,0.153,2.826,0.225,4.236c-3.735,0-7.478,0-11.225,0
				c-0.075-1.414-0.21-2.83-0.21-4.244c-0.013-166.39-0.014-332.779,0-499.171c0-0.973,0.135-1.949,0.21-2.921
				C50.552-308.831,54.295-308.831,58.03-308.831z"/>
			<path fill-rule="evenodd" clip-rule="evenodd" fill="#252424" d="M74.554,197.602c-0.051-1.203-0.15-2.398-0.15-3.6
				c-0.003-166.38-0.003-332.76,0-499.14c0-1.201,0.1-2.398,0.15-3.599c3.744,0,7.488,0,11.221,0
				c-0.06,1.634-0.175,3.271-0.175,4.907c-0.005,165.946-0.005,331.891,0,497.839c0,1.197,0.116,2.393,0.175,3.592
				C82.042,197.602,78.298,197.602,74.554,197.602z"/>
			<path fill-rule="evenodd" clip-rule="evenodd" fill="#252424" d="M112.014-307.752c-0.065,1.636-0.193,3.272-0.193,4.908
				c-0.007,165.945-0.007,331.894,0,497.84c0,1.195,0.128,2.393,0.193,3.592c-3.745,0-7.488,0-11.235,0
				c-0.051-1.203-0.158-2.396-0.158-3.6c-0.005-166.382-0.005-332.762,0-499.144c0-1.2,0.107-2.398,0.158-3.596
				C104.525-307.752,108.269-307.752,112.014-307.752z"/>
			<path fill-rule="evenodd" clip-rule="evenodd" fill="#252424" d="M32.835-308.69c-0.051,1.639-0.14,3.28-0.14,4.917
				c-0.005,165.939-0.005,331.878,0,497.817c0,1.203,0.088,2.4,0.14,3.604c-3.526,0-7.043,0-10.57,0
				c-0.061-1.311-0.177-2.617-0.177-3.924c-0.012-166.493-0.012-332.99,0-499.484c0-0.975,0.116-1.953,0.177-2.93
				C25.792-308.69,29.309-308.69,32.835-308.69z"/>
			<path fill-rule="evenodd" clip-rule="evenodd" fill="#252424" d="M127.129,197.506c-0.085-1.193-0.219-2.383-0.219-3.582
				c-0.018-166.612-0.018-333.226,0-499.836c0-0.974,0.134-1.947,0.219-2.918c3.518,0,7.041,0,10.567,0
				c0.063,1.195,0.181,2.394,0.181,3.589c0.014,166.169,0.014,332.333,0,498.5c0,1.414-0.118,2.834-0.181,4.248
				C134.17,197.506,130.646,197.506,127.129,197.506z"/>
			<path fill-rule="evenodd" clip-rule="evenodd" fill="#252424" d="M163.653-308.736c0.086,1.191,0.247,2.381,0.247,3.574
				c0.019,166.397,0.019,332.792,0,499.188c0,1.193-0.161,2.385-0.247,3.576c-3.524,0-7.05,0-10.575,0
				c0.039-1.203,0.119-2.404,0.119-3.605c0.002-166.488,0.002-332.971,0-499.457c0-1.092-0.08-2.184-0.119-3.275
				C156.604-308.736,160.129-308.736,163.653-308.736z"/>
			<path fill-rule="evenodd" clip-rule="evenodd" fill="#252424" d="M179.601,197.506c-0.007-1.314-0.026-2.625-0.026-3.941
				c0-165.604,0-331.208,0-496.811c0-1.861,0.02-3.723,0.026-5.584c3.525,0,7.053,0,10.576,0c0.014,0.875,0.038,1.751,0.038,2.626
				c0.002,167.03,0.002,334.056,0,501.085c0,0.873-0.024,1.752-0.038,2.625C186.653,197.506,183.126,197.506,179.601,197.506z"/>
			<path fill-rule="evenodd" clip-rule="evenodd" fill="#252424" d="M216.37-308.502c0.03,1.203,0.097,2.405,0.097,3.607
				c0.002,166.485,0.002,332.966,0,499.449c0,1.096-0.066,2.186-0.097,3.281c-3.524,0-7.05,0-10.576,0
				c-0.086-1.191-0.249-2.381-0.249-3.574c-0.011-166.285-0.011-332.573,0-498.862c0-1.301,0.163-2.603,0.249-3.902
				C209.32-308.502,212.846-308.502,216.37-308.502z"/>
			<path fill-rule="evenodd" clip-rule="evenodd" fill="#252424" d="M244.332,197.602c0-168.78,0-337.56,0-506.338
				c0.208,0.143,0.693-0.333,0.678,0.328c-0.035,0.876-0.01,1.754-0.01,2.629c0,166.808,0.004,333.614-0.042,500.422
				C244.958,195.607,245.721,196.871,244.332,197.602z"/>
		</g>
	</g>
	
		<rect x="15.025" y="7.885" fill="none" stroke="#1A1A1B" stroke-width="2.2152" stroke-miterlimit="10" width="207.493" height="140.297"/>
	<g enable-background="new    ">
		<g>
			<defs>
				<path id="SVGID_3_" d="M51.813,115.117c0,1.51-1.099,2.771-3.301,3.785c-2.107,0.977-4.617,1.471-7.524,1.471
					c-2.899,0-5.396-0.494-7.507-1.471c-2.181-1.014-3.273-2.275-3.273-3.785v-23.92c0-1.494,1.092-2.758,3.273-3.787
					c2.111-0.975,4.608-1.467,7.507-1.467c2.907,0,5.417,0.492,7.524,1.467c2.202,1.029,3.301,2.293,3.301,3.787v2.104h-3.076
					v-2.104c0-0.637-0.722-1.283-2.176-1.939c-1.616-0.713-3.474-1.07-5.572-1.07c-2.109,0-3.957,0.357-5.553,1.07
					c-1.432,0.656-2.15,1.303-2.15,1.939v23.92c0,0.637,0.718,1.273,2.15,1.912c1.596,0.701,3.444,1.053,5.553,1.053
					c2.098,0,3.957-0.352,5.572-1.053c1.454-0.639,2.176-1.275,2.176-1.912v-8.271h-7.74v-2.332h9.266
					c1.034,0,1.551,0.375,1.551,1.146V115.117z M98.125,58.972c0,0.236,0.136,0.438,0.402,0.602
					c1.097,0.966,1.646,1.848,1.646,2.643c0,0.537-0.536,0.803-1.601,0.803s-2.447-0.249-4.145-0.751
					c0.407-2.193,1.333-5.755,2.802-10.683c0.43-1.329,0.958-2.969,1.592-4.915c0.632-1.945,1.385-4.236,2.252-6.865
					c0.065-0.229-0.255-0.581-0.954-1.046c-0.699-0.468-1.331-0.698-1.893-0.698c-0.268,0-0.482,0.081-0.651,0.249
					c-0.967,1.495-2.18,3.179-3.643,5.039c-1.46,1.867-3.144,3.947-5.045,6.242c-3.459,4.162-6.155,7.255-8.08,9.285
					c-7.857-1.697-14.312-2.545-19.37-2.545c-1.129,0-2.152,0.04-3.067,0.125c-0.919,0.084-1.754,0.227-2.522,0.424
					c-3.695,0.932-6.308,3.347-7.833,7.237c-0.472,1.065-0.805,2.096-1.002,3.095c-0.201,0.998-0.298,1.949-0.298,2.846
					c0,2.096,0.573,3.747,1.724,4.94c1.146,1.201,2.767,1.781,4.863,1.749c4.227-0.065,9.553-2.33,15.974-6.787
					c2.299-1.632,4.4-3.251,6.313-4.871c1.912-1.611,3.667-3.27,5.268-4.967c2.23,0.536,4.344,1.019,6.336,1.449
					c1.997,0.432,3.896,0.831,5.692,1.2c-0.165,1.463-0.288,2.813-0.375,4.041c-0.082,1.234-0.123,2.363-0.123,3.396
					c0,2.761,0.268,4.691,0.796,5.788c0.033,0.138,0.169,0.203,0.4,0.203c0.599,0,0.932-0.248,0.997-0.751
					c0-0.031-0.045-0.083-0.151-0.149c-0.097-0.066-0.214-0.129-0.344-0.197c-0.139-0.065-0.262-0.136-0.376-0.202
					c-0.113-0.065-0.171-0.117-0.171-0.149c-0.236-0.699-0.355-1.632-0.355-2.794c0-1.131,0.102-2.427,0.301-3.897
					c0.204-1.459,0.482-3.141,0.848-5.038c1.534,0.3,2.754,0.508,3.669,0.621c0.913,0.118,1.56,0.094,1.925-0.072
					c1.16-0.397,1.644-0.847,1.441-1.351c-0.431-1.063-1.259-2.142-2.492-3.244c-0.098-0.064-0.188-0.128-0.275-0.195
					c-0.084-0.065-0.175-0.104-0.275-0.104C98.125,58.672,98.057,58.776,98.125,58.972L98.125,58.972z M55.596,58.026
					c0.731-0.164,1.566-0.294,2.499-0.372c0.928-0.084,1.979-0.125,3.141-0.125c5.893,0,12.067,0.798,18.522,2.397
					c-3.565,3.588-7.19,6.735-10.881,9.431c-5.958,4.197-11.081,6.34-15.375,6.441c-0.967,0.034-1.798-0.116-2.497-0.451
					c-0.699-0.331-1.296-0.816-1.798-1.447c-0.863-1.097-1.3-2.578-1.3-4.441c0-1.7,0.32-3.377,0.954-5.042
					c0.697-1.794,1.605-3.218,2.717-4.27C52.691,59.096,54.032,58.391,55.596,58.026z M78.097,115.117
					c0,1.51-1.101,2.771-3.303,3.785c-2.111,0.977-4.623,1.471-7.531,1.471c-2.89,0-5.393-0.494-7.498-1.471
					c-2.187-1.014-3.275-2.275-3.275-3.785v-23.92c0-1.494,1.088-2.758,3.275-3.787c2.104-0.975,4.607-1.467,7.498-1.467
					c2.908,0,5.419,0.492,7.531,1.467c2.202,1.029,3.303,2.293,3.303,3.787V115.117z M72.84,117.029
					c1.449-0.639,2.174-1.275,2.174-1.912v-23.92c0-0.637-0.725-1.283-2.174-1.939c-1.614-0.713-3.472-1.07-5.577-1.07
					c-2.101,0-3.95,0.357-5.549,1.07c-1.43,0.656-2.148,1.303-2.148,1.939v23.92c0,0.637,0.718,1.273,2.148,1.912
					c1.599,0.701,3.448,1.053,5.549,1.053C69.368,118.082,71.226,117.73,72.84,117.029L72.84,117.029z M81.8,59.175
					c2.598-2.695,5.162-5.542,7.686-8.539c2.536-2.995,5.06-6.173,7.591-9.535c0.165-0.162,0.301-0.288,0.398-0.371
					c0.099-0.085,0.236-0.125,0.398-0.125c0.301,0,0.45,0.268,0.45,0.797c0,0.096-0.03,0.319-0.097,0.65
					c-3.026,9.25-4.744,15.889-5.142,19.915c-1.867-0.365-3.736-0.782-5.612-1.248C85.586,60.259,83.7,59.742,81.8,59.175z
					 M104.809,115.117c0,1.51-1.097,2.771-3.299,3.785c-2.124,0.977-4.64,1.471-7.545,1.471c-2.886,0-5.387-0.494-7.489-1.471
					c-2.181-1.014-3.271-2.275-3.271-3.785V86.41h3.074v28.707c0,0.637,0.714,1.273,2.124,1.912
					c1.601,0.701,3.451,1.053,5.562,1.053c2.125,0,3.989-0.352,5.583-1.053c1.454-0.639,2.181-1.275,2.181-1.912V86.41h3.081
					V115.117z M119.939,76.444c2.095,0.102,3.97-0.044,5.615-0.45c1.645-0.397,3.033-0.978,4.171-1.743
					c0.561-0.4,1.153-0.848,1.768-1.351c0.612-0.496,1.097-1.044,1.449-1.644c0.346-0.602,0.497-1.241,0.447-1.925
					c-0.049-0.68-0.454-1.403-1.224-2.167c-0.271-0.267-0.68-0.587-1.248-0.953c-0.569-0.367-1.24-0.73-2.021-1.097
					c-0.785-0.367-1.646-0.699-2.594-1c-0.951-0.299-1.936-0.516-2.968-0.646c-0.404-0.068-0.602-0.201-0.602-0.402
					c0-0.198,0.217-0.329,0.646-0.4c1.104-0.197,2.389-0.463,3.871-0.797c1.481-0.331,3.009-0.75,4.595-1.246
					c1.579-0.503,3.151-1.089,4.712-1.775c1.565-0.677,2.996-1.455,4.294-2.317c1.064-0.699,1.919-1.501,2.572-2.399
					c0.646-0.897,1.036-1.825,1.174-2.771c0.13-0.946-0.032-1.887-0.501-2.818c-0.466-0.935-1.269-1.797-2.397-2.599
					c-1.763-1.229-3.576-2.194-5.442-2.893c-1.86-0.699-3.79-1.24-5.789-1.624c-1.995-0.384-4.052-0.633-6.161-0.75
					c-2.116-0.117-4.302-0.189-6.567-0.222c-0.129,0-0.58,0.014-1.343,0.047c-0.77,0.037-1.692,0.103-2.773,0.201
					c-1.083,0.097-2.252,0.259-3.52,0.476c-1.263,0.216-2.486,0.508-3.667,0.873c-1.181,0.368-2.245,0.805-3.197,1.32
					c-0.947,0.516-1.618,1.161-2.022,1.925c-0.398,0.699-0.498,1.355-0.294,1.971c0.195,0.614,0.556,1.182,1.071,1.697
					c0.515,0.516,1.108,0.998,1.768,1.449c0.667,0.446,1.285,0.835,1.854,1.168c0.595,0.404,0.913,0.47,0.947,0.202
					c0.033-0.267-0.203-0.536-0.699-0.797c-0.303-0.168-0.694-0.424-1.174-0.775c-0.485-0.347-0.928-0.764-1.326-1.247
					c-0.398-0.482-0.699-0.991-0.894-1.521c-0.203-0.534-0.171-1.05,0.1-1.551c0.43-0.863,1.068-1.588,1.917-2.169
					c0.85-0.582,1.787-1.042,2.828-1.373c1.03-0.335,2.101-0.573,3.217-0.724c1.114-0.15,2.161-0.253,3.146-0.298
					c0.978-0.052,1.845-0.059,2.591-0.027c0.751,0.034,1.272,0.052,1.573,0.052c2.029,0.031,4.079,0.132,6.14,0.294
					c2.064,0.171,4.087,0.463,6.064,0.875c1.981,0.417,3.89,0.993,5.72,1.723c1.825,0.73,3.521,1.682,5.088,2.846
					c1.031,0.764,1.691,1.566,1.971,2.395c0.281,0.836,0.326,1.639,0.125,2.422c-0.196,0.783-0.563,1.52-1.097,2.222
					c-0.534,0.701-1.116,1.297-1.748,1.799c-0.668,0.528-1.49,1.043-2.468,1.546c-0.986,0.496-2.051,0.973-3.197,1.422
					c-1.149,0.451-2.332,0.855-3.546,1.22c-1.214,0.367-2.362,0.692-3.439,0.974c-1.082,0.287-2.068,0.529-2.949,0.724
					c-0.88,0.203-1.553,0.334-2.016,0.398c0.259-0.398,0.625-0.96,1.095-1.696c0.465-0.731,0.993-1.553,1.574-2.467
					c0.58-0.915,1.169-1.874,1.768-2.873c0.602-0.997,1.155-1.963,1.673-2.898c0.513-0.925,0.958-1.794,1.323-2.59
					c0.366-0.803,0.58-1.43,0.653-1.898c0.098-0.499-0.039-0.772-0.406-0.823c-0.366-0.052-0.764,0-1.194,0.15
					c-0.431,0.149-0.803,0.34-1.095,0.573c-0.301,0.235-0.353,0.367-0.149,0.399c0.228,0.032,0.377,0.143,0.441,0.327
					c0.074,0.183,0.091,0.378,0.078,0.599c-0.02,0.215-0.065,0.445-0.149,0.699c-0.084,0.248-0.155,0.438-0.221,0.574
					c-0.333,0.731-0.753,1.581-1.252,2.544c-0.498,0.96-1.064,1.979-1.698,3.042c-0.634,1.065-1.305,2.155-2.017,3.271
					c-0.721,1.115-1.443,2.186-2.175,3.217c-0.43,0.136-0.941,0.229-1.521,0.277c-0.588,0.05-1.023,0.095-1.324,0.126
					c-0.097,0-0.188,0.06-0.274,0.171c-0.084,0.118-0.119,0.254-0.098,0.403c0.013,0.147,0.091,0.295,0.221,0.445
					c0.13,0.151,0.333,0.273,0.602,0.378c0.227,0.099,0.431,0.165,0.602,0.198c0.162,0.034,0.365,0.083,0.593,0.149
					c-0.563,0.835-1.214,1.841-1.945,3.021c-0.731,1.181-1.462,2.37-2.194,3.571c-0.738,1.194-1.391,2.343-1.977,3.444
					c-0.58,1.098-0.971,1.979-1.166,2.645c-0.271,0.797-0.31,1.183-0.125,1.15c0.182-0.033,0.437-0.384,0.768-1.05
					c0.4-0.935,1.006-2.069,1.823-3.421c0.816-1.344,1.651-2.663,2.499-3.941c0.848-1.28,1.625-2.416,2.343-3.394
					c0.718-0.979,1.174-1.604,1.369-1.874c0.537,0.065,1.256,0.196,2.149,0.377c0.899,0.184,1.814,0.407,2.749,0.673
					c0.931,0.268,1.819,0.556,2.668,0.876c0.848,0.314,1.488,0.639,1.925,0.971c0.667,0.496,1.097,1.044,1.294,1.646
					c0.203,0.6,0.228,1.188,0.078,1.775c-0.149,0.581-0.446,1.113-0.876,1.592c-0.431,0.483-0.946,0.861-1.545,1.128
					c-1.397,0.627-2.957,1.098-4.666,1.397c-1.718,0.3-3.421,0.412-5.12,0.346c-0.201,0-0.398,0.046-0.599,0.125
					c-0.195,0.084-0.314,0.183-0.346,0.3c-0.033,0.118,0.039,0.233,0.221,0.352C119.045,76.34,119.402,76.411,119.939,76.444z
					 M132.699,119.904h-3.4l-7.35-13.334c-2.486,2.098-5.158,4.094-8.026,5.977v7.357h-3.081V86.41h11.038
					c7.065,0,10.601,1.869,10.601,5.604c0,3.363-2.773,7.563-8.313,12.594L132.699,119.904z M113.923,109.535
					c10.37-7.512,15.562-13.348,15.562-17.5c0-2.227-2.535-3.334-7.594-3.334h-7.968V109.535L113.923,109.535z M163.418,119.904
					h-3.072V92.697c-0.184,0.352-3.087,5.727-8.711,16.113c-0.251,0.484-0.721,0.725-1.39,0.725c-0.705,0-1.188-0.24-1.438-0.725
					l-8.711-16.113v27.207h-3.081V87.092c0-0.77,0.48-1.148,1.445-1.148c0.725,0,1.207,0.211,1.445,0.633l10.263,18.688
					l10.313-18.688c0.216-0.422,0.661-0.633,1.332-0.633c1.073,0,1.605,0.379,1.605,1.148V119.904z M145.192,73.501
					c2.861,1.762,6.32,2.675,10.384,2.748c2.498,0.066,5.056-0.197,7.686-0.776c2.631-0.58,5.342-1.455,8.139-2.619
					c5.22-2.199,9.35-4.84,12.374-7.938c0.235-0.231,0.353-0.416,0.353-0.55c0-0.165-0.067-0.25-0.201-0.25
					c-0.164,0-0.346,0.118-0.547,0.353c-1.564,1.43-3.345,2.735-5.342,3.917c-1.996,1.18-4.242,2.29-6.74,3.322
					c-2.693,1.064-5.346,1.886-7.955,2.466c-2.617,0.582-5.191,0.907-7.716,0.973c-4.392,0.104-7.818-0.731-10.284-2.493
					c-2.095-1.532-3.14-3.529-3.14-5.991c0-0.83,0.11-1.645,0.347-2.448c1.531-5.023,5.773-10.162,12.725-15.423
					c6.591-4.889,12.698-7.87,18.32-8.936c0.47-0.064,0.906-0.116,1.324-0.149c0.417-0.031,0.805-0.05,1.177-0.05
					c2.693,0,4.337,0.667,4.938,1.995c-1.432,1.534-2.864,3.467-4.294,5.795c-1.899,2.992-2.845,5.423-2.845,7.285
					c0,0.137,0.267,0.247,0.798,0.352c0.468,0.033,0.747,0.033,0.851,0c1.896-1.063,3.526-2.427,4.889-4.093
					c1.199-1.329,2.015-2.57,2.449-3.72c0.431-1.148,0.646-2.369,0.646-3.669c0-1.329-0.233-2.282-0.698-2.845
					c0.431-0.534,0.648-0.848,0.648-0.952c0-0.196-0.082-0.314-0.251-0.346c-0.196-0.066-0.313-0.02-0.346,0.15l-0.651,0.646
					c-1.099-0.998-2.914-1.496-5.438-1.496c-0.899,0-1.8,0.046-2.695,0.151c-3.563,0.43-7.986,2.076-13.282,4.94
					c-5.586,3.029-10.248,6.442-13.971,10.234c-4.294,4.36-6.442,8.354-6.442,11.977C140.4,69.123,141.999,71.603,145.192,73.501
					L145.192,73.501z M189.183,119.904h-17.685c-1.034,0-1.552-0.377-1.552-1.148V87.58c0-0.781,0.518-1.17,1.552-1.17H188.8v2.291
					h-15.779v8.707H188.8v2.359h-15.779v17.85h16.162V119.904z M175.29,54.183c-0.098-0.066-0.13-0.217-0.098-0.451
					c0.431-1.729,1.233-3.707,2.395-5.938c0.6-1.164,1.214-2.181,1.848-3.043c0.634-0.867,1.266-1.63,1.899-2.295
					c0.333,0.566,0.495,1.312,0.495,2.245c0,0.534-0.058,1.05-0.175,1.546c-0.117,0.502-0.272,1.018-0.47,1.548
					c-1.136,2.631-2.95,4.757-5.444,6.39C175.577,54.28,175.426,54.28,175.29,54.183L175.29,54.183z M210.937,88.701h-8.251v31.203
					h-2.838V88.701h-8.201V86.41h19.29V88.701z"/>
			</defs>
			<clipPath id="SVGID_4_">
				<use xlink:href="#SVGID_3_"  overflow="visible"/>
			</clipPath>
			<g transform="matrix(1 0 0 1 -5.960464e-008 -2.384186e-007)" clip-path="url(#SVGID_4_)">
				
					<image overflow="visible" width="1024" height="768" xlink:href="B4BBD496.jpg"  transform="matrix(0.2289 0 0 0.2289 0.9473 2.0967)">
				</image>
			</g>
		</g>
		<g>
			<defs>
				<path id="SVGID_5_" d="M175.433,53.999c0.028,0.025,0.059,0.027,0.071,0.028c0.03,0,0.076-0.015,0.119-0.04l-0.007,0.005
					c1.221-0.805,2.296-1.733,3.183-2.78c0.885-1.037,1.613-2.216,2.172-3.506c0.19-0.514,0.346-1.019,0.463-1.517
					c0.114-0.48,0.167-0.98,0.167-1.493c0-0.736-0.108-1.358-0.322-1.85c-0.552,0.603-1.11,1.282-1.66,2.035l0,0
					c-0.618,0.849-1.234,1.866-1.825,3.017c-1.148,2.197-1.949,4.174-2.378,5.879c-0.004,0.041-0.006,0.079-0.006,0.117
					c0,0.057,0.006,0.091,0.017,0.1C175.429,53.997,175.431,53.998,175.433,53.999 M155.569,76.474h0.002
					c-2.037-0.034-3.959-0.282-5.695-0.74c-1.742-0.467-3.362-1.148-4.805-2.04h0.008c-1.624-0.957-2.859-2.091-3.675-3.35
					c-0.82-1.271-1.229-2.714-1.229-4.284c0-1.845,0.549-3.799,1.635-5.822c1.077-2.005,2.713-4.13,4.863-6.315
					c1.867-1.897,3.991-3.722,6.321-5.431c2.327-1.702,4.924-3.333,7.714-4.847c2.642-1.427,5.104-2.571,7.314-3.394
					c2.224-0.823,4.255-1.356,6.044-1.572l0.002-0.001c0.904-0.099,1.817-0.151,2.722-0.151c1.278,0,2.395,0.126,3.314,0.384
					c0.85,0.236,1.562,0.58,2.113,1.032c0.162-0.161,0.398-0.4,0.457-0.455c0.061-0.181,0.207-0.292,0.402-0.292
					c0.064,0,0.134,0.016,0.205,0.037c0.271,0.057,0.424,0.266,0.424,0.571c0,0.116-0.048,0.277-0.586,0.956
					c0.429,0.617,0.638,1.55,0.638,2.84c0,1.316-0.227,2.581-0.664,3.746c-0.445,1.174-1.278,2.449-2.489,3.798l0.006-0.013
					c-1.38,1.682-3.046,3.077-4.958,4.148c-0.009,0.011-0.026,0.016-0.037,0.019c-0.08,0.027-0.186,0.036-0.361,0.036
					c0,0,0,0-0.002,0c-0.125-0.001-0.342-0.008-0.575-0.027c-0.007,0-0.018-0.001-0.026-0.002c-0.513-0.095-0.986-0.229-0.986-0.575
					c0-0.953,0.247-2.064,0.728-3.302c0.478-1.22,1.2-2.604,2.156-4.107l-0.002,0.003c1.396-2.271,2.81-4.193,4.214-5.712
					c-0.292-0.542-0.789-0.962-1.501-1.243c-0.79-0.324-1.856-0.484-3.165-0.484c-0.353,0-0.744,0.018-1.159,0.051
					c-0.407,0.034-0.847,0.079-1.301,0.145c-2.777,0.528-5.715,1.538-8.737,3.014c-3.026,1.476-6.215,3.454-9.483,5.88
					c-3.449,2.604-6.261,5.215-8.357,7.759c-2.092,2.538-3.539,5.077-4.292,7.551v-0.008c-0.223,0.776-0.337,1.578-0.337,2.386
					c0,1.186,0.259,2.276,0.759,3.239c0.507,0.962,1.274,1.824,2.293,2.566c1.132,0.816,2.499,1.432,4.063,1.842
					c1.573,0.408,3.384,0.618,5.387,0.618c0.223,0,0.459-0.002,0.694-0.006c2.497-0.064,5.077-0.392,7.665-0.968
					c2.589-0.577,5.255-1.41,7.929-2.458v0.001c2.466-1.024,4.727-2.137,6.704-3.308c1.971-1.165,3.751-2.471,5.295-3.885
					c0.245-0.278,0.48-0.412,0.71-0.412c0.201,0,0.433,0.125,0.433,0.474c0,0.204-0.137,0.426-0.418,0.715l0.003-0.002
					c-1.519,1.551-3.338,3.009-5.411,4.336c-2.062,1.325-4.433,2.55-7.043,3.646c-2.798,1.17-5.547,2.054-8.176,2.634
					c-2.366,0.529-4.711,0.793-6.966,0.793C156.093,76.485,155.835,76.479,155.569,76.474 M87.52,60.501
					c1.785,0.439,3.589,0.845,5.358,1.193c0.216-1.985,0.749-4.604,1.568-7.782c0.853-3.306,2.046-7.314,3.552-11.916
					c0.084-0.41,0.093-0.545,0.093-0.595c0-0.279-0.041-0.421-0.078-0.486c-0.041-0.061-0.076-0.084-0.141-0.084
					c-0.113,0-0.19,0.024-0.251,0.076v-0.001c-0.091,0.075-0.221,0.191-0.376,0.347c-2.509,3.333-5.06,6.54-7.583,9.533
					c-2.436,2.884-4.937,5.668-7.439,8.274C83.992,59.579,85.766,60.062,87.52,60.501 M58.11,57.878h0.002
					c-0.917,0.083-1.748,0.208-2.464,0.368c-1.517,0.357-2.836,1.053-3.912,2.069c-1.086,1.017-1.983,2.427-2.665,4.184
					c-0.621,1.628-0.932,3.3-0.932,4.955c0,1.805,0.422,3.253,1.246,4.301c0.478,0.603,1.056,1.073,1.717,1.385
					c0.602,0.29,1.317,0.431,2.133,0.431c0.086,0,0.171-0.002,0.257-0.005h0.002c2.105-0.045,4.455-0.609,6.977-1.666
					c2.538-1.063,5.322-2.649,8.268-4.729l-0.002,0.001c3.567-2.604,7.119-5.67,10.57-9.123c-3.07-0.748-6.118-1.319-9.056-1.696
					c-3.061-0.395-6.094-0.598-9.019-0.598C60.096,57.755,59.042,57.794,58.11,57.878 M48.267,75.159
					c-1.183-1.237-1.787-2.956-1.787-5.104c0-0.91,0.106-1.881,0.305-2.888c0.204-1.01,0.543-2.065,1.015-3.142
					c0.772-1.968,1.834-3.582,3.161-4.809c1.331-1.222,2.955-2.09,4.829-2.558c0.772-0.203,1.629-0.35,2.559-0.431
					c0.917-0.083,1.962-0.131,3.089-0.131c2.522,0,5.443,0.218,8.664,0.642c3.185,0.417,6.758,1.051,10.624,1.887
					c1.915-2.022,4.604-5.11,7.991-9.181c1.88-2.277,3.576-4.375,5.036-6.235c1.449-1.845,2.667-3.536,3.632-5.025
					c0.006-0.016,0.017-0.026,0.03-0.036c0.209-0.212,0.482-0.32,0.811-0.32c0.608,0,1.285,0.248,2.019,0.737
					c0.74,0.491,1.06,0.854,1.06,1.175c0,0.044-0.007,0.086-0.016,0.125c0,0.009,0,0.012-0.002,0.013
					c-0.894,2.704-1.627,4.949-2.243,6.86l-1.199,3.68l-0.402,1.242v-0.006c-1.41,4.736-2.332,8.252-2.75,10.454
					c1.577,0.454,2.881,0.68,3.879,0.68c0.491,0,0.865-0.06,1.095-0.179c0.242-0.116,0.272-0.272,0.272-0.393
					c0-0.718-0.521-1.55-1.556-2.461c-0.309-0.197-0.478-0.451-0.486-0.741c-0.02-0.06-0.028-0.117-0.028-0.171
					c0-0.184,0.121-0.397,0.454-0.397c0.154,0,0.294,0.052,0.417,0.15c0.074,0.062,0.16,0.123,0.255,0.186
					c0.015,0.004,0.024,0.01,0.03,0.022c1.249,1.116,2.111,2.237,2.551,3.329c0.045,0.099,0.061,0.199,0.061,0.302
					c0,0.525-0.53,0.966-1.638,1.345c-0.247,0.112-0.578,0.16-1.01,0.16c-0.294,0-0.636-0.021-1.021-0.072
					c-0.863-0.113-2.029-0.304-3.457-0.581c-0.34,1.778-0.61,3.396-0.805,4.8c-0.197,1.448-0.294,2.749-0.294,3.865
					c0,1.122,0.108,2.028,0.331,2.698c0.011,0.009,0.037,0.027,0.076,0.049c0.115,0.067,0.236,0.132,0.361,0.193
					c0.145,0.07,0.271,0.147,0.375,0.213c0.136,0.088,0.255,0.188,0.255,0.339c0,0.013,0,0.023-0.002,0.03
					c-0.045,0.314-0.175,0.551-0.39,0.717c-0.208,0.153-0.486,0.231-0.839,0.231c-0.428,0-0.564-0.204-0.612-0.345
					c-0.547-1.146-0.816-3.064-0.816-5.875c0-1.034,0.05-2.18,0.125-3.407c0.083-1.172,0.201-2.466,0.355-3.847
					c-1.707-0.349-3.552-0.74-5.486-1.161c-1.934-0.414-4.026-0.892-6.217-1.414c-1.57,1.657-3.318,3.307-5.194,4.888
					c-1.913,1.611-4.039,3.252-6.33,4.878h-0.002c-3.208,2.231-6.185,3.934-8.85,5.063c-2.68,1.14-5.114,1.73-7.251,1.769
					l-0.167,0.001C51.058,76.977,49.422,76.364,48.267,75.159 M111.781,78.172c0-0.208,0.082-0.543,0.255-1.045
					c0.197-0.682,0.595-1.585,1.186-2.687c0.58-1.097,1.246-2.264,1.977-3.455c0.712-1.161,1.449-2.362,2.2-3.572
					c0.649-1.059,1.248-1.988,1.767-2.759c-0.097-0.027-0.19-0.051-0.274-0.064c-0.18-0.036-0.387-0.107-0.634-0.209
					c-0.301-0.115-0.528-0.263-0.692-0.441c-0.162-0.183-0.253-0.375-0.279-0.576l-0.004-0.096c0-0.166,0.045-0.322,0.147-0.458
					c0.153-0.214,0.322-0.268,0.45-0.271c0.325-0.036,0.781-0.082,1.313-0.124c0.534-0.049,1.001-0.125,1.399-0.243
					c0.712-1,1.422-2.059,2.121-3.147c0.719-1.116,1.396-2.213,2.021-3.264c0.637-1.069,1.205-2.093,1.69-3.033
					c0.493-0.951,0.912-1.809,1.243-2.537c0-0.003,0.002-0.003,0.005-0.006c0.061-0.122,0.127-0.305,0.212-0.544
					c0.071-0.227,0.121-0.449,0.134-0.644c0.002-0.034,0.011-0.074,0.011-0.109c0-0.138-0.025-0.273-0.073-0.396
					c-0.02-0.066-0.073-0.149-0.262-0.177c0,0,0-0.001-0.011-0.001c-0.226-0.035-0.308-0.185-0.308-0.31
					c0-0.153,0.106-0.296,0.359-0.49c0.322-0.248,0.707-0.455,1.161-0.61c0.349-0.121,0.682-0.182,0.993-0.182
					c0.108,0,0.21,0.007,0.31,0.018c0.404,0.055,0.632,0.332,0.632,0.765c0,0.1-0.011,0.212-0.035,0.329
					c-0.071,0.492-0.294,1.131-0.666,1.953c-0.37,0.809-0.817,1.687-1.332,2.608c-0.521,0.944-1.089,1.925-1.675,2.905
					c-0.595,0.984-1.186,1.95-1.776,2.875l-0.041,0.067l-1.533,2.4c-0.313,0.501-0.582,0.925-0.812,1.265
					c0.404-0.07,0.896-0.177,1.497-0.309c0.876-0.202,1.86-0.445,2.938-0.724c1.077-0.279,2.23-0.609,3.434-0.971
					c1.202-0.361,2.386-0.772,3.53-1.216c1.134-0.446,2.198-0.924,3.167-1.415c0.965-0.489,1.785-1.002,2.436-1.521
					c0.614-0.486,1.19-1.08,1.707-1.758c0.511-0.668,0.87-1.391,1.058-2.141c0.083-0.304,0.119-0.613,0.119-0.921
					c0-0.447-0.082-0.906-0.238-1.366c-0.268-0.783-0.903-1.556-1.888-2.288c-1.543-1.15-3.239-2.094-5.043-2.818
					c-1.813-0.723-3.723-1.299-5.677-1.708c-1.958-0.413-3.989-0.708-6.04-0.871c-2.051-0.169-4.109-0.266-6.125-0.3l0.004,0.001
					c-0.313-0.003-0.887-0.023-1.581-0.053c-0.301-0.011-0.615-0.016-0.946-0.016c-0.5,0-1.047,0.012-1.626,0.042
					c-0.974,0.052-2.027,0.149-3.126,0.3c-1.093,0.146-2.167,0.388-3.18,0.715c-1.004,0.322-1.934,0.773-2.758,1.342
					c-0.817,0.562-1.44,1.262-1.847,2.086c-0.002,0.001-0.002,0.004-0.004,0.004c-0.134,0.248-0.201,0.51-0.201,0.763
					c0,0.196,0.035,0.394,0.115,0.597c0.188,0.507,0.48,0.997,0.856,1.457c0.387,0.463,0.818,0.873,1.278,1.208
					c0.476,0.339,0.863,0.598,1.151,0.759l-0.002-0.002c0.556,0.297,0.822,0.606,0.822,0.948l-0.002,0.083
					c-0.03,0.219-0.184,0.36-0.402,0.36c-0.208,0-0.489-0.124-0.891-0.395c-0.567-0.331-1.192-0.726-1.858-1.178
					c-0.675-0.455-1.281-0.956-1.802-1.479c-0.541-0.539-0.921-1.136-1.133-1.787c-0.071-0.225-0.108-0.462-0.108-0.7
					c0-0.465,0.147-0.959,0.429-1.455c0.419-0.798,1.127-1.477,2.113-2.009c0.952-0.523,2.042-0.97,3.239-1.344
					c1.172-0.365,2.423-0.66,3.697-0.879c1.263-0.216,2.458-0.375,3.531-0.473c1.082-0.103,2.018-0.17,2.782-0.202
					c0.839-0.035,1.233-0.052,1.361-0.052l0,0c2.25,0.034,4.461,0.113,6.575,0.228c2.113,0.118,4.201,0.37,6.197,0.754
					c1.999,0.379,3.955,0.928,5.824,1.627c1.875,0.707,3.721,1.688,5.49,2.925c1.162,0.818,1.99,1.72,2.473,2.678
					c0.374,0.756,0.569,1.529,0.569,2.295c0,0.217-0.02,0.443-0.05,0.662c-0.135,0.979-0.546,1.945-1.214,2.874
					c-0.662,0.914-1.545,1.739-2.631,2.453c-1.302,0.87-2.758,1.657-4.328,2.338c-1.558,0.685-3.156,1.279-4.736,1.782
					c-1.581,0.497-3.139,0.919-4.609,1.251c-1.474,0.331-2.777,0.601-3.877,0.804h-0.011c-0.374,0.061-0.454,0.152-0.454,0.172
					c0,0.044,0.11,0.125,0.409,0.173l-0.005-0.001c1.039,0.136,2.049,0.358,3.005,0.659c0.95,0.302,1.83,0.639,2.629,1.008
					c0.787,0.368,1.471,0.747,2.044,1.114c0.575,0.371,1.006,0.701,1.289,0.977c0.799,0.806,1.231,1.582,1.285,2.32
					c0.007,0.091,0.016,0.182,0.016,0.271c0,0.622-0.169,1.223-0.498,1.779c-0.359,0.62-0.861,1.197-1.495,1.71
					c-0.623,0.506-1.227,0.961-1.784,1.358c-0.002,0.001-0.002,0.002-0.005,0.003c-1.148,0.778-2.574,1.373-4.242,1.781
					c-1.328,0.318-2.818,0.486-4.441,0.486c-0.401,0-0.82-0.015-1.242-0.031c-0.002,0-0.002,0-0.002,0
					c-0.576-0.038-0.965-0.121-1.181-0.263c-0.087-0.055-0.34-0.215-0.34-0.486c0-0.038,0.006-0.083,0.015-0.119v0.002
					c0.054-0.187,0.21-0.335,0.482-0.451c0.229-0.094,0.465-0.138,0.688-0.138c0.002,0,0.004,0,0.009,0
					c0.305,0.01,0.619,0.014,0.919,0.014c1.368,0,2.763-0.122,4.152-0.364c1.685-0.295,3.24-0.759,4.609-1.378
					c0.569-0.254,1.063-0.613,1.467-1.071c0.411-0.453,0.688-0.953,0.829-1.499c0.061-0.231,0.089-0.466,0.089-0.694
					c0-0.313-0.053-0.632-0.163-0.946c-0.184-0.554-0.59-1.071-1.216-1.537c-0.417-0.321-1.04-0.636-1.868-0.941
					c-0.833-0.318-1.729-0.605-2.648-0.871c-0.919-0.265-1.841-0.487-2.729-0.668c-0.815-0.163-1.486-0.284-1.999-0.357
					c-0.236,0.32-0.673,0.924-1.294,1.766c-0.699,0.958-1.486,2.1-2.336,3.383c-0.85,1.288-1.689,2.608-2.49,3.937
					c-0.809,1.33-1.415,2.473-1.811,3.39c0,0.003-0.002,0.006-0.004,0.016c-0.484,0.971-0.749,1.133-0.937,1.167
					c-0.007,0.004-0.002,0.003-0.009,0.004l-0.052,0.004C112.045,78.57,111.781,78.536,111.781,78.172"/>
			</defs>
			<clipPath id="SVGID_6_">
				<use xlink:href="#SVGID_5_"  overflow="visible"/>
			</clipPath>
			<g transform="matrix(1 0 0 1 -5.960464e-008 -2.384186e-007)" clip-path="url(#SVGID_6_)">
				
					<image overflow="visible" width="1024" height="768" xlink:href="B4BBD49A.jpg"  transform="matrix(0.2289 0 0 0.2289 0.9473 2.0967)">
				</image>
			</g>
		</g>
		<g>
			<defs>
				<path id="SVGID_7_" d="M98.125,58.972c-0.067-0.195,0-0.299,0.199-0.299c0.1,0,0.19,0.039,0.275,0.104
					c0.086,0.067,0.177,0.131,0.275,0.195c1.233,1.103,2.062,2.181,2.492,3.244c0.203,0.504-0.281,0.954-1.441,1.351
					c-0.366,0.167-1.013,0.19-1.925,0.072c-0.915-0.112-2.135-0.32-3.669-0.621c-0.366,1.897-0.645,3.579-0.848,5.038
					c-0.199,1.47-0.301,2.766-0.301,3.897c0,1.162,0.119,2.095,0.355,2.794c0,0.033,0.058,0.084,0.171,0.149
					c0.115,0.066,0.238,0.137,0.376,0.202c0.13,0.067,0.247,0.131,0.344,0.197c0.106,0.066,0.151,0.118,0.151,0.149
					c-0.065,0.503-0.398,0.751-0.997,0.751c-0.231,0-0.368-0.065-0.4-0.203c-0.528-1.097-0.796-3.026-0.796-5.788
					c0-1.032,0.041-2.161,0.123-3.396c0.087-1.229,0.21-2.578,0.375-4.041c-1.795-0.369-3.695-0.768-5.692-1.2
					c-1.992-0.43-4.106-0.914-6.336-1.449c-1.601,1.697-3.355,3.355-5.268,4.967c-1.913,1.619-4.013,3.239-6.313,4.871
					c-6.421,4.457-11.747,6.722-15.974,6.787c-2.097,0.032-3.717-0.548-4.863-1.749c-1.151-1.193-1.724-2.844-1.724-4.94
					c0-0.897,0.097-1.848,0.298-2.846c0.197-0.999,0.53-2.029,1.002-3.095c1.525-3.891,4.138-6.305,7.833-7.237
					c0.768-0.197,1.603-0.34,2.522-0.424c0.915-0.084,1.938-0.125,3.067-0.125c5.058,0,11.513,0.848,19.37,2.545
					c1.925-2.029,4.621-5.123,8.08-9.285c1.901-2.295,3.584-4.375,5.045-6.242c1.462-1.859,2.676-3.543,3.643-5.039
					c0.169-0.167,0.383-0.249,0.651-0.249c0.563,0,1.194,0.229,1.893,0.698c0.699,0.465,1.019,0.816,0.954,1.046
					c-0.867,2.629-1.62,4.92-2.252,6.865c-0.634,1.946-1.162,3.586-1.592,4.915c-1.469,4.928-2.395,8.49-2.802,10.683
					c1.698,0.502,3.081,0.751,4.145,0.751s1.601-0.266,1.601-0.803c0-0.795-0.549-1.677-1.646-2.643
					C98.261,59.41,98.125,59.208,98.125,58.972L98.125,58.972z M51.579,60.146c-1.112,1.051-2.021,2.475-2.717,4.27
					c-0.634,1.666-0.954,3.342-0.954,5.042c0,1.864,0.437,3.344,1.3,4.441c0.502,0.631,1.099,1.116,1.798,1.447
					c0.699,0.335,1.529,0.484,2.497,0.451c4.294-0.101,9.417-2.244,15.375-6.441c3.69-2.696,7.316-5.843,10.881-9.431
					c-6.455-1.599-12.629-2.397-18.522-2.397c-1.162,0-2.213,0.042-3.141,0.125c-0.932,0.078-1.767,0.208-2.499,0.372
					C54.032,58.391,52.691,59.096,51.579,60.146z M87.472,60.721c1.876,0.465,3.745,0.883,5.612,1.248
					c0.398-4.026,2.116-10.664,5.142-19.915c0.067-0.331,0.097-0.554,0.097-0.65c0-0.53-0.149-0.797-0.45-0.797
					c-0.162,0-0.299,0.039-0.398,0.125c-0.098,0.083-0.234,0.209-0.398,0.371c-2.531,3.362-5.055,6.54-7.591,9.535
					c-2.524,2.997-5.088,5.843-7.686,8.539C83.7,59.742,85.586,60.259,87.472,60.721z M118.862,76.222
					c-0.182-0.118-0.253-0.234-0.221-0.352c0.032-0.117,0.151-0.215,0.346-0.3c0.201-0.079,0.398-0.125,0.599-0.125
					c1.699,0.066,3.402-0.046,5.12-0.346c1.709-0.299,3.269-0.77,4.666-1.397c0.599-0.267,1.114-0.645,1.545-1.128
					c0.43-0.479,0.727-1.011,0.876-1.592c0.149-0.586,0.125-1.175-0.078-1.775c-0.197-0.602-0.627-1.15-1.294-1.646
					c-0.437-0.332-1.077-0.657-1.925-0.971c-0.849-0.32-1.737-0.608-2.668-0.876c-0.935-0.266-1.85-0.489-2.749-0.673
					c-0.894-0.182-1.612-0.313-2.141-0.377c-0.204,0.269-0.66,0.895-1.378,1.874c-0.718,0.979-1.495,2.114-2.343,3.394
					c-0.848,1.278-1.683,2.597-2.499,3.941c-0.817,1.352-1.423,2.487-1.823,3.421c-0.331,0.667-0.586,1.017-0.768,1.05
					c-0.184,0.033-0.145-0.353,0.125-1.15c0.195-0.666,0.586-1.547,1.166-2.645c0.586-1.101,1.239-2.25,1.977-3.444
					c0.731-1.201,1.462-2.39,2.194-3.571c0.731-1.18,1.382-2.186,1.945-3.021c-0.228-0.066-0.431-0.115-0.593-0.149
					c-0.171-0.034-0.375-0.1-0.602-0.198c-0.268-0.105-0.472-0.227-0.602-0.378c-0.129-0.149-0.208-0.297-0.221-0.445
					c-0.021-0.149,0.013-0.285,0.098-0.403c0.086-0.111,0.177-0.171,0.274-0.171c0.301-0.031,0.736-0.077,1.324-0.126
					c0.58-0.048,1.09-0.141,1.521-0.277c0.732-1.031,1.455-2.102,2.175-3.217c0.712-1.116,1.383-2.206,2.017-3.271
					c0.634-1.063,1.2-2.082,1.698-3.042c0.499-0.964,0.919-1.813,1.252-2.544c0.065-0.136,0.137-0.327,0.221-0.574
					c0.084-0.254,0.13-0.483,0.149-0.699c0.013-0.221-0.004-0.417-0.078-0.599c-0.064-0.184-0.214-0.294-0.441-0.327
					c-0.203-0.032-0.151-0.165,0.149-0.399c0.292-0.233,0.664-0.424,1.095-0.573c0.431-0.15,0.828-0.202,1.194-0.15
					c0.367,0.051,0.504,0.324,0.406,0.823c-0.073,0.469-0.287,1.096-0.653,1.898c-0.365,0.796-0.811,1.666-1.323,2.59
					c-0.518,0.935-1.071,1.901-1.673,2.898c-0.599,1-1.188,1.958-1.768,2.873c-0.581,0.914-1.109,1.736-1.574,2.467
					c-0.47,0.736-0.836,1.298-1.095,1.696c0.463-0.064,1.136-0.195,2.016-0.398c0.881-0.195,1.867-0.437,2.949-0.724
					c1.077-0.281,2.226-0.607,3.439-0.974c1.214-0.365,2.396-0.769,3.546-1.22c1.146-0.45,2.211-0.927,3.197-1.422
					c0.978-0.503,1.8-1.019,2.468-1.546c0.632-0.502,1.214-1.098,1.748-1.799c0.534-0.702,0.9-1.439,1.097-2.222
					c0.201-0.783,0.156-1.586-0.125-2.422c-0.279-0.829-0.939-1.631-1.971-2.395c-1.566-1.164-3.263-2.116-5.088-2.846
					c-1.83-0.73-3.738-1.306-5.72-1.723c-1.978-0.412-4-0.704-6.064-0.875c-2.062-0.162-4.111-0.263-6.14-0.294
					c-0.301,0-0.822-0.019-1.573-0.052c-0.746-0.031-1.614-0.025-2.591,0.027c-0.984,0.045-2.032,0.148-3.146,0.298
					c-1.116,0.15-2.187,0.388-3.217,0.724c-1.041,0.331-1.978,0.791-2.828,1.373c-0.848,0.581-1.486,1.306-1.917,2.169
					c-0.271,0.5-0.303,1.017-0.1,1.551c0.195,0.53,0.496,1.039,0.894,1.521c0.398,0.483,0.841,0.9,1.326,1.247
					c0.48,0.352,0.872,0.607,1.174,0.775c0.496,0.262,0.731,0.53,0.699,0.797c-0.035,0.268-0.353,0.202-0.947-0.202
					c-0.569-0.333-1.188-0.723-1.854-1.168c-0.66-0.451-1.252-0.934-1.768-1.449c-0.515-0.515-0.876-1.083-1.071-1.697
					c-0.203-0.615-0.104-1.272,0.294-1.971c0.404-0.765,1.077-1.409,2.022-1.925c0.952-0.515,2.016-0.952,3.197-1.32
					c1.181-0.364,2.404-0.656,3.667-0.873c1.268-0.217,2.436-0.379,3.52-0.476c1.082-0.099,2.003-0.165,2.773-0.201
					c0.764-0.034,1.214-0.047,1.343-0.047c2.265,0.032,4.451,0.104,6.567,0.222c2.109,0.118,4.166,0.367,6.161,0.75
					c1.999,0.384,3.931,0.925,5.789,1.624c1.866,0.699,3.68,1.664,5.442,2.893c1.129,0.802,1.932,1.665,2.397,2.599
					c0.469,0.931,0.631,1.872,0.501,2.818c-0.138,0.946-0.527,1.874-1.174,2.771c-0.653,0.897-1.508,1.7-2.572,2.399
					c-1.298,0.862-2.729,1.64-4.294,2.317c-1.561,0.686-3.133,1.272-4.712,1.775c-1.586,0.497-3.113,0.915-4.595,1.246
					c-1.482,0.334-2.768,0.6-3.871,0.797c-0.43,0.071-0.645,0.202-0.645,0.4c0,0.201,0.195,0.334,0.602,0.402
					c1.03,0.13,2.015,0.347,2.966,0.646c0.948,0.301,1.809,0.633,2.594,1c0.781,0.367,1.452,0.73,2.021,1.097
					c0.568,0.366,0.978,0.686,1.248,0.953c0.77,0.764,1.175,1.487,1.227,2.167c0.047,0.685-0.104,1.324-0.45,1.925
					c-0.353,0.6-0.837,1.148-1.449,1.644c-0.614,0.503-1.207,0.951-1.768,1.351c-1.138,0.765-2.526,1.346-4.171,1.743
					c-1.645,0.406-3.52,0.552-5.615,0.45C119.402,76.411,119.045,76.34,118.862,76.222z M145.192,73.501
					c-3.193-1.899-4.792-4.378-4.792-7.44c0-3.623,2.148-7.617,6.442-11.977c3.723-3.792,8.385-7.205,13.971-10.234
					c5.296-2.864,9.72-4.51,13.282-4.94c0.896-0.105,1.796-0.151,2.695-0.151c2.524,0,4.34,0.498,5.438,1.496l0.651-0.646
					c0.032-0.17,0.149-0.216,0.346-0.15c0.169,0.032,0.251,0.15,0.251,0.346c0,0.104-0.218,0.417-0.648,0.952
					c0.465,0.563,0.698,1.516,0.698,2.845c0,1.3-0.216,2.521-0.646,3.669c-0.435,1.15-1.25,2.391-2.449,3.72
					c-1.362,1.666-2.993,3.03-4.889,4.093c-0.104,0.033-0.383,0.033-0.851,0c-0.531-0.105-0.798-0.214-0.798-0.352
					c0-1.862,0.945-4.293,2.845-7.285c1.43-2.329,2.862-4.262,4.294-5.795c-0.602-1.328-2.245-1.995-4.938-1.995
					c-0.372,0-0.76,0.019-1.177,0.05c-0.418,0.034-0.854,0.085-1.324,0.149c-5.622,1.065-11.729,4.046-18.32,8.936
					c-6.951,5.261-11.193,10.4-12.725,15.423c-0.236,0.803-0.347,1.618-0.347,2.448c0,2.462,1.045,4.459,3.14,5.991
					c2.466,1.762,5.893,2.597,10.284,2.493c2.524-0.066,5.099-0.391,7.716-0.973c2.609-0.58,5.262-1.402,7.955-2.466
					c2.498-1.032,4.744-2.142,6.74-3.322c1.997-1.181,3.777-2.487,5.342-3.917c0.201-0.235,0.383-0.353,0.547-0.353
					c0.134,0,0.201,0.085,0.201,0.25c0,0.135-0.117,0.319-0.353,0.55c-3.024,3.098-7.154,5.739-12.374,7.938
					c-2.797,1.164-5.508,2.039-8.139,2.619c-2.63,0.58-5.188,0.842-7.686,0.776C151.513,76.177,148.054,75.264,145.192,73.501
					L145.192,73.501z M175.29,54.183c0.136,0.097,0.287,0.097,0.45,0c2.496-1.632,4.309-3.759,5.444-6.39
					c0.197-0.53,0.353-1.046,0.47-1.548c0.117-0.496,0.175-1.012,0.175-1.546c0-0.933-0.162-1.679-0.495-2.245
					c-0.634,0.665-1.266,1.429-1.899,2.295c-0.634,0.863-1.248,1.88-1.848,3.043c-1.161,2.231-1.964,4.209-2.395,5.938
					C175.16,53.966,175.192,54.116,175.29,54.183L175.29,54.183z"/>
			</defs>
			<use xlink:href="#SVGID_7_"  overflow="visible" fill="#252424"/>
			<clipPath id="SVGID_8_">
				<use xlink:href="#SVGID_7_"  overflow="visible"/>
			</clipPath>
			<g transform="matrix(1 0 0 1 -5.960464e-008 -2.384186e-007)" clip-path="url(#SVGID_8_)">
				
					<image overflow="visible" width="1024" height="768" xlink:href="B4BBD49D.jpg"  transform="matrix(0.2289 0 0 0.2289 0.9473 2.0967)">
				</image>
			</g>
		</g>
	</g>
</g>
<g id="Calque_2">
</g>
</svg>
